# xmcd CD database file
#
# Track frame offsets:
#	150
#	12193
#	36680
#	63340
#	77785
#	110475
#	138275
#	184718
#	210720
#	232620
#	263440
#	281515
#
# Disc length: 4444 seconds
#
# Revision: 4
# Processed by: cddbd v1.4PL0 Copyright (c) Steve Scherf et al.
# Submitted via: CDex 1.40Release
#
DISCID=9d115a0c
DTITLE=Stevie Ray Vaughan - One For The Last
DYEAR=1990
DGENRE=Blues
TTITLE0=House is a - rockin'
TTITLE1=Tightrope
TTITLE2=Little sister
TTITLE3=Let me love you
TTITLE4=Texas Flood
TTITLE5=Leave my little girl alone
TTITLE6=Riviera Paradise
TTITLE7=Wall of denial
TTITLE8=Superstition
TTITLE9=Cold shot
TTITLE10=Crossfire
TTITLE11=Voodoo chile
EXTD=YEAR: 1990 ID3G: 0
EXTT0=
EXTT1=
EXTT2=
EXTT3=
EXTT4=
EXTT5=
EXTT6=
EXTT7=
EXTT8=
EXTT9=
EXTT10=
EXTT11=
PLAYORDER=
